<svg id="Layer_1" height="512" viewBox="0 0 512 512" width="512" xmlns="http://www.w3.org/2000/svg" data-name="Layer 1"><path d="m365.33 204.94q-2.559 3.051-4.966 5.907a48.157 48.157 0 0 1 9.79 2.02z"/><path d="m355.508 240.691a18.467 18.467 0 0 1 17.741 13.447h20.459a38.524 38.524 0 0 0 -76.4 0h20.459a18.466 18.466 0 0 1 17.741-13.447z"/><path d="m390.075 225.111c2.321-3.325 5.108-7.326 8.226-11.811l-16.848-27.68c-3.188 3.836-6.317 7.593-9.347 11.222l16.119 26.48c.633.578 1.248 1.178 1.85 1.789z"/><path d="m348.715 254.138h13.585a8.418 8.418 0 0 0 -13.587 0z"/><path d="m26.028 341.738a2.849 2.849 0 0 0 -2.845 2.845v32.217a2.849 2.849 0 0 0 2.845 2.845h34.645a55.582 55.582 0 0 1 9.063-37.911z"/><path d="m442.826 149.022-13.2-21.686-1.853 2.248c-2.4 2.91-4.893 5.937-7.453 9.041l13.9 22.838c2.937-4.242 5.823-8.415 8.606-12.441z"/><path d="m457.649 127.566-11.977-19.678c-2.8 3.387-5.932 7.182-9.311 11.28l12.689 20.847c3.109-4.499 6.006-8.693 8.599-12.449z"/><path d="m413.155 191.894-15.623-25.668c-3.116 3.767-6.234 7.532-9.324 11.259l16.332 26.832c2.737-3.945 5.631-8.117 8.615-12.423z"/><circle cx="116.238" cy="372.882" r="6.767"/><path d="m428 170.465-14.41-23.673c-3.052 3.7-6.167 7.472-9.311 11.278l15.108 24.83c2.844-4.109 5.731-8.277 8.613-12.435z"/><path d="m464.624 365.533v-30.795h-16.592z"/><path d="m384.259 326.894a45.989 45.989 0 1 0 45.988 45.988 46.04 46.04 0 0 0 -45.988-45.988zm0 62.755a16.767 16.767 0 1 1 16.766-16.767 16.786 16.786 0 0 1 -16.766 16.767z"/><circle cx="384.259" cy="372.882" r="6.767"/><path d="m474.624 348.193h14.192v23.611h-14.192z"/><path d="m232.048 264.138v60.6h123.675a55.826 55.826 0 0 1 57.071 0h51.83v-24.138l-40.966-36.466z"/><path d="m174.515 194.539h26v51.755h-26z"/><path d="m116.238 326.894a45.989 45.989 0 1 0 45.989 45.988 46.041 46.041 0 0 0 -45.989-45.988zm0 62.755a16.767 16.767 0 1 1 16.767-16.767 16.786 16.786 0 0 1 -16.767 16.767z"/><path d="m164.515 194.539h-28.347l-13.334 51.755h41.681z"/><path d="m486.654 226.2a5 5 0 1 0 -7.372-6.757 18.521 18.521 0 0 1 -14.85 5.972 18.739 18.739 0 0 1 -17.305-17.343 18.447 18.447 0 0 1 10.844-18.04 21.322 21.322 0 0 0 12.653-19.263v-62.244c2.218-4.453 3.143-10.993-1.226-13.807-3.214-2.069-6.662-2.116-10.537-.146a22.2 22.2 0 0 0 -5.763 4.355l-.678.816 8.2 13.478v57.546a11.162 11.162 0 0 1 -6.787 10.157 28.538 28.538 0 0 0 9.974 54.469q.908.057 1.81.057a28.426 28.426 0 0 0 21.037-9.25z"/><path d="m222.048 329.738v-70.584c-.071-23.254-.048-53.446-.018-77.154a9 9 0 0 0 -9-9.006h-87.983a8.995 8.995 0 0 0 -8.717 6.764l-18.624 72.6a5 5 0 0 1 -2.332 3.082l-43.6 25.327a25.076 25.076 0 0 0 -12.442 21.617v29.354h38.985a55.846 55.846 0 0 1 53.783-12.538v-62.9h-15.718a5 5 0 0 1 -4.841-6.248l15.91-61.754a5 5 0 0 1 4.842-3.753h73.222a5 5 0 0 1 5 5v61.755a5 5 0 0 1 -5 5h-63.415v66.954a56.032 56.032 0 0 1 30.1 48.546h49.849v-14.607a5 5 0 0 1 5-5h84.5l-13.773 25.561a5 5 0 1 0 8.8 4.744l25.734-47.76h-105.262a5 5 0 0 1 -5-5z"/></svg>